<mxfile host="app.diagrams.net" modified="2024-03-19T01:32:18.605Z" agent="Mozilla/5.0 (Windows NT 10.0; Win64; x64) AppleWebKit/537.36 (KHTML, like Gecko) Chrome/122.0.0.0 Safari/537.36 Edg/122.0.0.0" etag="v9ZfiXfKXTnWoytB3S7U" version="24.0.1" type="device">
  <diagram name="Page-1" id="CSgZ0jB_2RjnAeLSj31y">
    <mxGraphModel dx="1110" dy="617" grid="1" gridSize="10" guides="1" tooltips="1" connect="1" arrows="1" fold="1" page="1" pageScale="1" pageWidth="1100" pageHeight="850" math="0" shadow="0">
      <root>
        <mxCell id="0" />
        <mxCell id="1" parent="0" />
        <mxCell id="z8rxX6k1cLV4djfFU_Xt-23" style="rounded=0;orthogonalLoop=1;jettySize=auto;html=1;strokeColor=#000000;endSize=4;" edge="1" parent="1" source="z8rxX6k1cLV4djfFU_Xt-9" target="z8rxX6k1cLV4djfFU_Xt-13">
          <mxGeometry relative="1" as="geometry" />
        </mxCell>
        <mxCell id="z8rxX6k1cLV4djfFU_Xt-24" style="edgeStyle=orthogonalEdgeStyle;rounded=0;orthogonalLoop=1;jettySize=auto;html=1;endSize=4;strokeColor=#CCCCCC;" edge="1" parent="1" source="z8rxX6k1cLV4djfFU_Xt-9" target="z8rxX6k1cLV4djfFU_Xt-12">
          <mxGeometry relative="1" as="geometry" />
        </mxCell>
        <mxCell id="z8rxX6k1cLV4djfFU_Xt-25" style="rounded=0;orthogonalLoop=1;jettySize=auto;html=1;endSize=4;strokeColor=#CCCCCC;" edge="1" parent="1" source="z8rxX6k1cLV4djfFU_Xt-9" target="z8rxX6k1cLV4djfFU_Xt-11">
          <mxGeometry relative="1" as="geometry" />
        </mxCell>
        <mxCell id="z8rxX6k1cLV4djfFU_Xt-9" value="" style="ellipse;whiteSpace=wrap;html=1;aspect=fixed;strokeColor=#000000;" vertex="1" parent="1">
          <mxGeometry x="230" y="220" width="20" height="20" as="geometry" />
        </mxCell>
        <mxCell id="z8rxX6k1cLV4djfFU_Xt-10" value="" style="ellipse;whiteSpace=wrap;html=1;aspect=fixed;strokeColor=#CCCCCC;" vertex="1" parent="1">
          <mxGeometry x="150" y="320" width="20" height="20" as="geometry" />
        </mxCell>
        <mxCell id="z8rxX6k1cLV4djfFU_Xt-11" value="" style="ellipse;whiteSpace=wrap;html=1;aspect=fixed;strokeColor=#CCCCCC;" vertex="1" parent="1">
          <mxGeometry x="300" y="280" width="20" height="20" as="geometry" />
        </mxCell>
        <mxCell id="z8rxX6k1cLV4djfFU_Xt-12" value="" style="ellipse;whiteSpace=wrap;html=1;aspect=fixed;strokeColor=#CCCCCC;" vertex="1" parent="1">
          <mxGeometry x="230" y="280" width="20" height="20" as="geometry" />
        </mxCell>
        <mxCell id="z8rxX6k1cLV4djfFU_Xt-13" value="" style="ellipse;whiteSpace=wrap;html=1;aspect=fixed;strokeColor=#000000;" vertex="1" parent="1">
          <mxGeometry x="170" y="280" width="20" height="20" as="geometry" />
        </mxCell>
        <mxCell id="z8rxX6k1cLV4djfFU_Xt-15" value="" style="ellipse;whiteSpace=wrap;html=1;aspect=fixed;strokeColor=#000000;" vertex="1" parent="1">
          <mxGeometry x="190" y="320" width="20" height="20" as="geometry" />
        </mxCell>
        <mxCell id="z8rxX6k1cLV4djfFU_Xt-16" value="" style="ellipse;whiteSpace=wrap;html=1;aspect=fixed;strokeColor=#CCCCCC;" vertex="1" parent="1">
          <mxGeometry x="230" y="320" width="20" height="20" as="geometry" />
        </mxCell>
        <mxCell id="z8rxX6k1cLV4djfFU_Xt-17" value="" style="ellipse;whiteSpace=wrap;html=1;aspect=fixed;strokeColor=#CCCCCC;" vertex="1" parent="1">
          <mxGeometry x="270" y="320" width="20" height="20" as="geometry" />
        </mxCell>
        <mxCell id="z8rxX6k1cLV4djfFU_Xt-18" value="" style="ellipse;whiteSpace=wrap;html=1;aspect=fixed;strokeColor=#CCCCCC;" vertex="1" parent="1">
          <mxGeometry x="300" y="320" width="20" height="20" as="geometry" />
        </mxCell>
        <mxCell id="z8rxX6k1cLV4djfFU_Xt-19" value="" style="ellipse;whiteSpace=wrap;html=1;aspect=fixed;strokeColor=#CCCCCC;" vertex="1" parent="1">
          <mxGeometry x="330" y="320" width="20" height="20" as="geometry" />
        </mxCell>
        <mxCell id="z8rxX6k1cLV4djfFU_Xt-21" value="" style="ellipse;whiteSpace=wrap;html=1;aspect=fixed;strokeColor=#CCCCCC;" vertex="1" parent="1">
          <mxGeometry x="280" y="360" width="20" height="20" as="geometry" />
        </mxCell>
        <mxCell id="z8rxX6k1cLV4djfFU_Xt-22" value="" style="ellipse;whiteSpace=wrap;html=1;aspect=fixed;strokeColor=#CCCCCC;" vertex="1" parent="1">
          <mxGeometry x="320" y="360" width="20" height="20" as="geometry" />
        </mxCell>
        <mxCell id="z8rxX6k1cLV4djfFU_Xt-26" style="rounded=0;orthogonalLoop=1;jettySize=auto;html=1;strokeColor=#CCCCCC;endSize=4;" edge="1" parent="1" source="z8rxX6k1cLV4djfFU_Xt-13" target="z8rxX6k1cLV4djfFU_Xt-10">
          <mxGeometry relative="1" as="geometry">
            <mxPoint x="243" y="247" as="sourcePoint" />
            <mxPoint x="197" y="293" as="targetPoint" />
          </mxGeometry>
        </mxCell>
        <mxCell id="z8rxX6k1cLV4djfFU_Xt-27" style="rounded=0;orthogonalLoop=1;jettySize=auto;html=1;strokeColor=#000000;endSize=4;" edge="1" parent="1" source="z8rxX6k1cLV4djfFU_Xt-13" target="z8rxX6k1cLV4djfFU_Xt-15">
          <mxGeometry relative="1" as="geometry">
            <mxPoint x="186" y="309" as="sourcePoint" />
            <mxPoint x="174" y="331" as="targetPoint" />
          </mxGeometry>
        </mxCell>
        <mxCell id="z8rxX6k1cLV4djfFU_Xt-28" style="rounded=0;orthogonalLoop=1;jettySize=auto;html=1;strokeColor=#CCCCCC;endSize=4;" edge="1" parent="1" source="z8rxX6k1cLV4djfFU_Xt-12" target="z8rxX6k1cLV4djfFU_Xt-16">
          <mxGeometry relative="1" as="geometry">
            <mxPoint x="194" y="309" as="sourcePoint" />
            <mxPoint x="206" y="331" as="targetPoint" />
          </mxGeometry>
        </mxCell>
        <mxCell id="z8rxX6k1cLV4djfFU_Xt-29" style="rounded=0;orthogonalLoop=1;jettySize=auto;html=1;strokeColor=#CCCCCC;endSize=4;" edge="1" parent="1" source="z8rxX6k1cLV4djfFU_Xt-11" target="z8rxX6k1cLV4djfFU_Xt-17">
          <mxGeometry relative="1" as="geometry">
            <mxPoint x="250" y="310" as="sourcePoint" />
            <mxPoint x="250" y="330" as="targetPoint" />
          </mxGeometry>
        </mxCell>
        <mxCell id="z8rxX6k1cLV4djfFU_Xt-30" style="rounded=0;orthogonalLoop=1;jettySize=auto;html=1;strokeColor=#CCCCCC;endSize=4;" edge="1" parent="1" source="z8rxX6k1cLV4djfFU_Xt-11" target="z8rxX6k1cLV4djfFU_Xt-18">
          <mxGeometry relative="1" as="geometry">
            <mxPoint x="314" y="308" as="sourcePoint" />
            <mxPoint x="296" y="332" as="targetPoint" />
          </mxGeometry>
        </mxCell>
        <mxCell id="z8rxX6k1cLV4djfFU_Xt-31" style="rounded=0;orthogonalLoop=1;jettySize=auto;html=1;strokeColor=#CCCCCC;endSize=4;" edge="1" parent="1" source="z8rxX6k1cLV4djfFU_Xt-11" target="z8rxX6k1cLV4djfFU_Xt-19">
          <mxGeometry relative="1" as="geometry">
            <mxPoint x="320" y="310" as="sourcePoint" />
            <mxPoint x="320" y="330" as="targetPoint" />
          </mxGeometry>
        </mxCell>
        <mxCell id="z8rxX6k1cLV4djfFU_Xt-32" style="rounded=0;orthogonalLoop=1;jettySize=auto;html=1;strokeColor=#CCCCCC;endSize=4;" edge="1" parent="1" source="z8rxX6k1cLV4djfFU_Xt-18" target="z8rxX6k1cLV4djfFU_Xt-21">
          <mxGeometry relative="1" as="geometry">
            <mxPoint x="326" y="308" as="sourcePoint" />
            <mxPoint x="344" y="332" as="targetPoint" />
          </mxGeometry>
        </mxCell>
        <mxCell id="z8rxX6k1cLV4djfFU_Xt-33" style="rounded=0;orthogonalLoop=1;jettySize=auto;html=1;strokeColor=#CCCCCC;endSize=4;" edge="1" parent="1" source="z8rxX6k1cLV4djfFU_Xt-18" target="z8rxX6k1cLV4djfFU_Xt-22">
          <mxGeometry relative="1" as="geometry">
            <mxPoint x="316" y="349" as="sourcePoint" />
            <mxPoint x="304" y="371" as="targetPoint" />
          </mxGeometry>
        </mxCell>
        <mxCell id="z8rxX6k1cLV4djfFU_Xt-34" value="&lt;b&gt;Selection&lt;/b&gt;" style="text;html=1;align=center;verticalAlign=middle;resizable=0;points=[];autosize=1;strokeColor=none;fillColor=none;" vertex="1" parent="1">
          <mxGeometry x="200" y="180" width="80" height="30" as="geometry" />
        </mxCell>
        <mxCell id="z8rxX6k1cLV4djfFU_Xt-35" style="rounded=0;orthogonalLoop=1;jettySize=auto;html=1;strokeColor=#000000;endSize=4;" edge="1" source="z8rxX6k1cLV4djfFU_Xt-38" target="z8rxX6k1cLV4djfFU_Xt-42" parent="1">
          <mxGeometry relative="1" as="geometry" />
        </mxCell>
        <mxCell id="z8rxX6k1cLV4djfFU_Xt-36" style="edgeStyle=orthogonalEdgeStyle;rounded=0;orthogonalLoop=1;jettySize=auto;html=1;endSize=4;strokeColor=#CCCCCC;" edge="1" source="z8rxX6k1cLV4djfFU_Xt-38" target="z8rxX6k1cLV4djfFU_Xt-41" parent="1">
          <mxGeometry relative="1" as="geometry" />
        </mxCell>
        <mxCell id="z8rxX6k1cLV4djfFU_Xt-37" style="rounded=0;orthogonalLoop=1;jettySize=auto;html=1;endSize=4;strokeColor=#CCCCCC;" edge="1" source="z8rxX6k1cLV4djfFU_Xt-38" target="z8rxX6k1cLV4djfFU_Xt-40" parent="1">
          <mxGeometry relative="1" as="geometry" />
        </mxCell>
        <mxCell id="z8rxX6k1cLV4djfFU_Xt-38" value="" style="ellipse;whiteSpace=wrap;html=1;aspect=fixed;strokeColor=#000000;" vertex="1" parent="1">
          <mxGeometry x="460" y="220" width="20" height="20" as="geometry" />
        </mxCell>
        <mxCell id="z8rxX6k1cLV4djfFU_Xt-39" value="" style="ellipse;whiteSpace=wrap;html=1;aspect=fixed;strokeColor=#CCCCCC;" vertex="1" parent="1">
          <mxGeometry x="380" y="320" width="20" height="20" as="geometry" />
        </mxCell>
        <mxCell id="z8rxX6k1cLV4djfFU_Xt-40" value="" style="ellipse;whiteSpace=wrap;html=1;aspect=fixed;strokeColor=#CCCCCC;" vertex="1" parent="1">
          <mxGeometry x="530" y="280" width="20" height="20" as="geometry" />
        </mxCell>
        <mxCell id="z8rxX6k1cLV4djfFU_Xt-41" value="" style="ellipse;whiteSpace=wrap;html=1;aspect=fixed;strokeColor=#CCCCCC;" vertex="1" parent="1">
          <mxGeometry x="460" y="280" width="20" height="20" as="geometry" />
        </mxCell>
        <mxCell id="z8rxX6k1cLV4djfFU_Xt-42" value="" style="ellipse;whiteSpace=wrap;html=1;aspect=fixed;strokeColor=#000000;" vertex="1" parent="1">
          <mxGeometry x="400" y="280" width="20" height="20" as="geometry" />
        </mxCell>
        <mxCell id="z8rxX6k1cLV4djfFU_Xt-60" style="edgeStyle=orthogonalEdgeStyle;rounded=0;orthogonalLoop=1;jettySize=auto;html=1;endSize=4;" edge="1" parent="1" source="z8rxX6k1cLV4djfFU_Xt-43" target="z8rxX6k1cLV4djfFU_Xt-59">
          <mxGeometry relative="1" as="geometry" />
        </mxCell>
        <mxCell id="z8rxX6k1cLV4djfFU_Xt-43" value="" style="ellipse;whiteSpace=wrap;html=1;aspect=fixed;strokeColor=#000000;" vertex="1" parent="1">
          <mxGeometry x="420" y="320" width="20" height="20" as="geometry" />
        </mxCell>
        <mxCell id="z8rxX6k1cLV4djfFU_Xt-44" value="" style="ellipse;whiteSpace=wrap;html=1;aspect=fixed;strokeColor=#CCCCCC;" vertex="1" parent="1">
          <mxGeometry x="460" y="320" width="20" height="20" as="geometry" />
        </mxCell>
        <mxCell id="z8rxX6k1cLV4djfFU_Xt-45" value="" style="ellipse;whiteSpace=wrap;html=1;aspect=fixed;strokeColor=#CCCCCC;" vertex="1" parent="1">
          <mxGeometry x="500" y="320" width="20" height="20" as="geometry" />
        </mxCell>
        <mxCell id="z8rxX6k1cLV4djfFU_Xt-46" value="" style="ellipse;whiteSpace=wrap;html=1;aspect=fixed;strokeColor=#CCCCCC;" vertex="1" parent="1">
          <mxGeometry x="530" y="320" width="20" height="20" as="geometry" />
        </mxCell>
        <mxCell id="z8rxX6k1cLV4djfFU_Xt-47" value="" style="ellipse;whiteSpace=wrap;html=1;aspect=fixed;strokeColor=#CCCCCC;" vertex="1" parent="1">
          <mxGeometry x="560" y="320" width="20" height="20" as="geometry" />
        </mxCell>
        <mxCell id="z8rxX6k1cLV4djfFU_Xt-48" value="" style="ellipse;whiteSpace=wrap;html=1;aspect=fixed;strokeColor=#CCCCCC;" vertex="1" parent="1">
          <mxGeometry x="510" y="360" width="20" height="20" as="geometry" />
        </mxCell>
        <mxCell id="z8rxX6k1cLV4djfFU_Xt-49" value="" style="ellipse;whiteSpace=wrap;html=1;aspect=fixed;strokeColor=#CCCCCC;" vertex="1" parent="1">
          <mxGeometry x="550" y="360" width="20" height="20" as="geometry" />
        </mxCell>
        <mxCell id="z8rxX6k1cLV4djfFU_Xt-50" style="rounded=0;orthogonalLoop=1;jettySize=auto;html=1;strokeColor=#CCCCCC;endSize=4;" edge="1" source="z8rxX6k1cLV4djfFU_Xt-42" target="z8rxX6k1cLV4djfFU_Xt-39" parent="1">
          <mxGeometry relative="1" as="geometry">
            <mxPoint x="473" y="247" as="sourcePoint" />
            <mxPoint x="427" y="293" as="targetPoint" />
          </mxGeometry>
        </mxCell>
        <mxCell id="z8rxX6k1cLV4djfFU_Xt-51" style="rounded=0;orthogonalLoop=1;jettySize=auto;html=1;strokeColor=#000000;endSize=4;" edge="1" source="z8rxX6k1cLV4djfFU_Xt-42" target="z8rxX6k1cLV4djfFU_Xt-43" parent="1">
          <mxGeometry relative="1" as="geometry">
            <mxPoint x="416" y="309" as="sourcePoint" />
            <mxPoint x="404" y="331" as="targetPoint" />
          </mxGeometry>
        </mxCell>
        <mxCell id="z8rxX6k1cLV4djfFU_Xt-52" style="rounded=0;orthogonalLoop=1;jettySize=auto;html=1;strokeColor=#CCCCCC;endSize=4;" edge="1" source="z8rxX6k1cLV4djfFU_Xt-41" target="z8rxX6k1cLV4djfFU_Xt-44" parent="1">
          <mxGeometry relative="1" as="geometry">
            <mxPoint x="424" y="309" as="sourcePoint" />
            <mxPoint x="436" y="331" as="targetPoint" />
          </mxGeometry>
        </mxCell>
        <mxCell id="z8rxX6k1cLV4djfFU_Xt-53" style="rounded=0;orthogonalLoop=1;jettySize=auto;html=1;strokeColor=#CCCCCC;endSize=4;" edge="1" source="z8rxX6k1cLV4djfFU_Xt-40" target="z8rxX6k1cLV4djfFU_Xt-45" parent="1">
          <mxGeometry relative="1" as="geometry">
            <mxPoint x="480" y="310" as="sourcePoint" />
            <mxPoint x="480" y="330" as="targetPoint" />
          </mxGeometry>
        </mxCell>
        <mxCell id="z8rxX6k1cLV4djfFU_Xt-54" style="rounded=0;orthogonalLoop=1;jettySize=auto;html=1;strokeColor=#CCCCCC;endSize=4;" edge="1" source="z8rxX6k1cLV4djfFU_Xt-40" target="z8rxX6k1cLV4djfFU_Xt-46" parent="1">
          <mxGeometry relative="1" as="geometry">
            <mxPoint x="544" y="308" as="sourcePoint" />
            <mxPoint x="526" y="332" as="targetPoint" />
          </mxGeometry>
        </mxCell>
        <mxCell id="z8rxX6k1cLV4djfFU_Xt-55" style="rounded=0;orthogonalLoop=1;jettySize=auto;html=1;strokeColor=#CCCCCC;endSize=4;" edge="1" source="z8rxX6k1cLV4djfFU_Xt-40" target="z8rxX6k1cLV4djfFU_Xt-47" parent="1">
          <mxGeometry relative="1" as="geometry">
            <mxPoint x="550" y="310" as="sourcePoint" />
            <mxPoint x="550" y="330" as="targetPoint" />
          </mxGeometry>
        </mxCell>
        <mxCell id="z8rxX6k1cLV4djfFU_Xt-56" style="rounded=0;orthogonalLoop=1;jettySize=auto;html=1;strokeColor=#CCCCCC;endSize=4;" edge="1" source="z8rxX6k1cLV4djfFU_Xt-46" target="z8rxX6k1cLV4djfFU_Xt-48" parent="1">
          <mxGeometry relative="1" as="geometry">
            <mxPoint x="556" y="308" as="sourcePoint" />
            <mxPoint x="574" y="332" as="targetPoint" />
          </mxGeometry>
        </mxCell>
        <mxCell id="z8rxX6k1cLV4djfFU_Xt-57" style="rounded=0;orthogonalLoop=1;jettySize=auto;html=1;strokeColor=#CCCCCC;endSize=4;" edge="1" source="z8rxX6k1cLV4djfFU_Xt-46" target="z8rxX6k1cLV4djfFU_Xt-49" parent="1">
          <mxGeometry relative="1" as="geometry">
            <mxPoint x="546" y="349" as="sourcePoint" />
            <mxPoint x="534" y="371" as="targetPoint" />
          </mxGeometry>
        </mxCell>
        <mxCell id="z8rxX6k1cLV4djfFU_Xt-58" value="&lt;b&gt;Expansion&lt;/b&gt;" style="text;html=1;align=center;verticalAlign=middle;resizable=0;points=[];autosize=1;strokeColor=none;fillColor=none;" vertex="1" parent="1">
          <mxGeometry x="430" y="180" width="80" height="30" as="geometry" />
        </mxCell>
        <mxCell id="z8rxX6k1cLV4djfFU_Xt-59" value="" style="ellipse;whiteSpace=wrap;html=1;aspect=fixed;strokeColor=#000000;" vertex="1" parent="1">
          <mxGeometry x="420" y="360" width="20" height="20" as="geometry" />
        </mxCell>
        <mxCell id="z8rxX6k1cLV4djfFU_Xt-61" style="rounded=0;orthogonalLoop=1;jettySize=auto;html=1;strokeColor=#000000;endSize=4;" edge="1" source="z8rxX6k1cLV4djfFU_Xt-64" target="z8rxX6k1cLV4djfFU_Xt-68" parent="1">
          <mxGeometry relative="1" as="geometry" />
        </mxCell>
        <mxCell id="z8rxX6k1cLV4djfFU_Xt-62" style="edgeStyle=orthogonalEdgeStyle;rounded=0;orthogonalLoop=1;jettySize=auto;html=1;endSize=4;strokeColor=#CCCCCC;" edge="1" source="z8rxX6k1cLV4djfFU_Xt-64" target="z8rxX6k1cLV4djfFU_Xt-67" parent="1">
          <mxGeometry relative="1" as="geometry" />
        </mxCell>
        <mxCell id="z8rxX6k1cLV4djfFU_Xt-63" style="rounded=0;orthogonalLoop=1;jettySize=auto;html=1;endSize=4;strokeColor=#CCCCCC;" edge="1" source="z8rxX6k1cLV4djfFU_Xt-64" target="z8rxX6k1cLV4djfFU_Xt-66" parent="1">
          <mxGeometry relative="1" as="geometry" />
        </mxCell>
        <mxCell id="z8rxX6k1cLV4djfFU_Xt-64" value="" style="ellipse;whiteSpace=wrap;html=1;aspect=fixed;strokeColor=#000000;" vertex="1" parent="1">
          <mxGeometry x="690" y="220" width="20" height="20" as="geometry" />
        </mxCell>
        <mxCell id="z8rxX6k1cLV4djfFU_Xt-65" value="" style="ellipse;whiteSpace=wrap;html=1;aspect=fixed;strokeColor=#CCCCCC;" vertex="1" parent="1">
          <mxGeometry x="610" y="320" width="20" height="20" as="geometry" />
        </mxCell>
        <mxCell id="z8rxX6k1cLV4djfFU_Xt-66" value="" style="ellipse;whiteSpace=wrap;html=1;aspect=fixed;strokeColor=#CCCCCC;" vertex="1" parent="1">
          <mxGeometry x="760" y="280" width="20" height="20" as="geometry" />
        </mxCell>
        <mxCell id="z8rxX6k1cLV4djfFU_Xt-67" value="" style="ellipse;whiteSpace=wrap;html=1;aspect=fixed;strokeColor=#CCCCCC;" vertex="1" parent="1">
          <mxGeometry x="690" y="280" width="20" height="20" as="geometry" />
        </mxCell>
        <mxCell id="z8rxX6k1cLV4djfFU_Xt-68" value="" style="ellipse;whiteSpace=wrap;html=1;aspect=fixed;strokeColor=#000000;" vertex="1" parent="1">
          <mxGeometry x="630" y="280" width="20" height="20" as="geometry" />
        </mxCell>
        <mxCell id="z8rxX6k1cLV4djfFU_Xt-69" style="edgeStyle=orthogonalEdgeStyle;rounded=0;orthogonalLoop=1;jettySize=auto;html=1;endSize=4;" edge="1" source="z8rxX6k1cLV4djfFU_Xt-70" target="z8rxX6k1cLV4djfFU_Xt-86" parent="1">
          <mxGeometry relative="1" as="geometry" />
        </mxCell>
        <mxCell id="z8rxX6k1cLV4djfFU_Xt-70" value="" style="ellipse;whiteSpace=wrap;html=1;aspect=fixed;strokeColor=#000000;" vertex="1" parent="1">
          <mxGeometry x="650" y="320" width="20" height="20" as="geometry" />
        </mxCell>
        <mxCell id="z8rxX6k1cLV4djfFU_Xt-71" value="" style="ellipse;whiteSpace=wrap;html=1;aspect=fixed;strokeColor=#CCCCCC;" vertex="1" parent="1">
          <mxGeometry x="690" y="320" width="20" height="20" as="geometry" />
        </mxCell>
        <mxCell id="z8rxX6k1cLV4djfFU_Xt-72" value="" style="ellipse;whiteSpace=wrap;html=1;aspect=fixed;strokeColor=#CCCCCC;" vertex="1" parent="1">
          <mxGeometry x="730" y="320" width="20" height="20" as="geometry" />
        </mxCell>
        <mxCell id="z8rxX6k1cLV4djfFU_Xt-73" value="" style="ellipse;whiteSpace=wrap;html=1;aspect=fixed;strokeColor=#CCCCCC;" vertex="1" parent="1">
          <mxGeometry x="760" y="320" width="20" height="20" as="geometry" />
        </mxCell>
        <mxCell id="z8rxX6k1cLV4djfFU_Xt-74" value="" style="ellipse;whiteSpace=wrap;html=1;aspect=fixed;strokeColor=#CCCCCC;" vertex="1" parent="1">
          <mxGeometry x="790" y="320" width="20" height="20" as="geometry" />
        </mxCell>
        <mxCell id="z8rxX6k1cLV4djfFU_Xt-75" value="" style="ellipse;whiteSpace=wrap;html=1;aspect=fixed;strokeColor=#CCCCCC;" vertex="1" parent="1">
          <mxGeometry x="740" y="360" width="20" height="20" as="geometry" />
        </mxCell>
        <mxCell id="z8rxX6k1cLV4djfFU_Xt-76" value="" style="ellipse;whiteSpace=wrap;html=1;aspect=fixed;strokeColor=#CCCCCC;" vertex="1" parent="1">
          <mxGeometry x="780" y="360" width="20" height="20" as="geometry" />
        </mxCell>
        <mxCell id="z8rxX6k1cLV4djfFU_Xt-77" style="rounded=0;orthogonalLoop=1;jettySize=auto;html=1;strokeColor=#CCCCCC;endSize=4;" edge="1" source="z8rxX6k1cLV4djfFU_Xt-68" target="z8rxX6k1cLV4djfFU_Xt-65" parent="1">
          <mxGeometry relative="1" as="geometry">
            <mxPoint x="703" y="247" as="sourcePoint" />
            <mxPoint x="657" y="293" as="targetPoint" />
          </mxGeometry>
        </mxCell>
        <mxCell id="z8rxX6k1cLV4djfFU_Xt-78" style="rounded=0;orthogonalLoop=1;jettySize=auto;html=1;strokeColor=#000000;endSize=4;" edge="1" source="z8rxX6k1cLV4djfFU_Xt-68" target="z8rxX6k1cLV4djfFU_Xt-70" parent="1">
          <mxGeometry relative="1" as="geometry">
            <mxPoint x="646" y="309" as="sourcePoint" />
            <mxPoint x="634" y="331" as="targetPoint" />
          </mxGeometry>
        </mxCell>
        <mxCell id="z8rxX6k1cLV4djfFU_Xt-79" style="rounded=0;orthogonalLoop=1;jettySize=auto;html=1;strokeColor=#CCCCCC;endSize=4;" edge="1" source="z8rxX6k1cLV4djfFU_Xt-67" target="z8rxX6k1cLV4djfFU_Xt-71" parent="1">
          <mxGeometry relative="1" as="geometry">
            <mxPoint x="654" y="309" as="sourcePoint" />
            <mxPoint x="666" y="331" as="targetPoint" />
          </mxGeometry>
        </mxCell>
        <mxCell id="z8rxX6k1cLV4djfFU_Xt-80" style="rounded=0;orthogonalLoop=1;jettySize=auto;html=1;strokeColor=#CCCCCC;endSize=4;" edge="1" source="z8rxX6k1cLV4djfFU_Xt-66" target="z8rxX6k1cLV4djfFU_Xt-72" parent="1">
          <mxGeometry relative="1" as="geometry">
            <mxPoint x="710" y="310" as="sourcePoint" />
            <mxPoint x="710" y="330" as="targetPoint" />
          </mxGeometry>
        </mxCell>
        <mxCell id="z8rxX6k1cLV4djfFU_Xt-81" style="rounded=0;orthogonalLoop=1;jettySize=auto;html=1;strokeColor=#CCCCCC;endSize=4;" edge="1" source="z8rxX6k1cLV4djfFU_Xt-66" target="z8rxX6k1cLV4djfFU_Xt-73" parent="1">
          <mxGeometry relative="1" as="geometry">
            <mxPoint x="774" y="308" as="sourcePoint" />
            <mxPoint x="756" y="332" as="targetPoint" />
          </mxGeometry>
        </mxCell>
        <mxCell id="z8rxX6k1cLV4djfFU_Xt-82" style="rounded=0;orthogonalLoop=1;jettySize=auto;html=1;strokeColor=#CCCCCC;endSize=4;" edge="1" source="z8rxX6k1cLV4djfFU_Xt-66" target="z8rxX6k1cLV4djfFU_Xt-74" parent="1">
          <mxGeometry relative="1" as="geometry">
            <mxPoint x="780" y="310" as="sourcePoint" />
            <mxPoint x="780" y="330" as="targetPoint" />
          </mxGeometry>
        </mxCell>
        <mxCell id="z8rxX6k1cLV4djfFU_Xt-83" style="rounded=0;orthogonalLoop=1;jettySize=auto;html=1;strokeColor=#CCCCCC;endSize=4;" edge="1" source="z8rxX6k1cLV4djfFU_Xt-73" target="z8rxX6k1cLV4djfFU_Xt-75" parent="1">
          <mxGeometry relative="1" as="geometry">
            <mxPoint x="786" y="308" as="sourcePoint" />
            <mxPoint x="804" y="332" as="targetPoint" />
          </mxGeometry>
        </mxCell>
        <mxCell id="z8rxX6k1cLV4djfFU_Xt-84" style="rounded=0;orthogonalLoop=1;jettySize=auto;html=1;strokeColor=#CCCCCC;endSize=4;" edge="1" source="z8rxX6k1cLV4djfFU_Xt-73" target="z8rxX6k1cLV4djfFU_Xt-76" parent="1">
          <mxGeometry relative="1" as="geometry">
            <mxPoint x="776" y="349" as="sourcePoint" />
            <mxPoint x="764" y="371" as="targetPoint" />
          </mxGeometry>
        </mxCell>
        <mxCell id="z8rxX6k1cLV4djfFU_Xt-85" value="&lt;b&gt;Simulation&lt;/b&gt;" style="text;html=1;align=center;verticalAlign=middle;resizable=0;points=[];autosize=1;strokeColor=none;fillColor=none;" vertex="1" parent="1">
          <mxGeometry x="660" y="180" width="80" height="30" as="geometry" />
        </mxCell>
        <mxCell id="z8rxX6k1cLV4djfFU_Xt-88" style="edgeStyle=orthogonalEdgeStyle;rounded=0;orthogonalLoop=1;jettySize=auto;html=1;curved=1;exitX=0.5;exitY=1;exitDx=0;exitDy=0;endSize=4;" edge="1" parent="1" source="z8rxX6k1cLV4djfFU_Xt-86">
          <mxGeometry relative="1" as="geometry">
            <mxPoint x="660" y="440" as="targetPoint" />
            <Array as="points">
              <mxPoint x="650" y="380" />
              <mxPoint x="650" y="390" />
              <mxPoint x="670" y="390" />
              <mxPoint x="670" y="400" />
              <mxPoint x="650" y="400" />
              <mxPoint x="650" y="410" />
              <mxPoint x="670" y="410" />
              <mxPoint x="670" y="420" />
              <mxPoint x="650" y="420" />
              <mxPoint x="650" y="430" />
              <mxPoint x="660" y="430" />
            </Array>
          </mxGeometry>
        </mxCell>
        <mxCell id="z8rxX6k1cLV4djfFU_Xt-86" value="" style="ellipse;whiteSpace=wrap;html=1;aspect=fixed;strokeColor=#000000;" vertex="1" parent="1">
          <mxGeometry x="650" y="360" width="20" height="20" as="geometry" />
        </mxCell>
        <mxCell id="z8rxX6k1cLV4djfFU_Xt-90" value="+1" style="ellipse;whiteSpace=wrap;html=1;aspect=fixed;strokeColor=#000000;" vertex="1" parent="1">
          <mxGeometry x="650" y="440" width="20" height="20" as="geometry" />
        </mxCell>
        <mxCell id="z8rxX6k1cLV4djfFU_Xt-91" value="&lt;font style=&quot;font-size: 10px;&quot;&gt;Victory!&lt;/font&gt;" style="text;html=1;align=center;verticalAlign=middle;resizable=0;points=[];autosize=1;strokeColor=none;fillColor=none;" vertex="1" parent="1">
          <mxGeometry x="665" y="435" width="60" height="30" as="geometry" />
        </mxCell>
        <mxCell id="z8rxX6k1cLV4djfFU_Xt-92" style="rounded=0;orthogonalLoop=1;jettySize=auto;html=1;strokeColor=#000000;endSize=4;" edge="1" source="z8rxX6k1cLV4djfFU_Xt-95" target="z8rxX6k1cLV4djfFU_Xt-99" parent="1">
          <mxGeometry relative="1" as="geometry" />
        </mxCell>
        <mxCell id="z8rxX6k1cLV4djfFU_Xt-93" style="edgeStyle=orthogonalEdgeStyle;rounded=0;orthogonalLoop=1;jettySize=auto;html=1;endSize=4;strokeColor=#CCCCCC;" edge="1" source="z8rxX6k1cLV4djfFU_Xt-95" target="z8rxX6k1cLV4djfFU_Xt-98" parent="1">
          <mxGeometry relative="1" as="geometry" />
        </mxCell>
        <mxCell id="z8rxX6k1cLV4djfFU_Xt-94" style="rounded=0;orthogonalLoop=1;jettySize=auto;html=1;endSize=4;strokeColor=#CCCCCC;" edge="1" source="z8rxX6k1cLV4djfFU_Xt-95" target="z8rxX6k1cLV4djfFU_Xt-97" parent="1">
          <mxGeometry relative="1" as="geometry" />
        </mxCell>
        <mxCell id="z8rxX6k1cLV4djfFU_Xt-95" value="+1" style="ellipse;whiteSpace=wrap;html=1;aspect=fixed;strokeColor=#000000;" vertex="1" parent="1">
          <mxGeometry x="920" y="220" width="20" height="20" as="geometry" />
        </mxCell>
        <mxCell id="z8rxX6k1cLV4djfFU_Xt-96" value="" style="ellipse;whiteSpace=wrap;html=1;aspect=fixed;strokeColor=#CCCCCC;" vertex="1" parent="1">
          <mxGeometry x="840" y="320" width="20" height="20" as="geometry" />
        </mxCell>
        <mxCell id="z8rxX6k1cLV4djfFU_Xt-97" value="" style="ellipse;whiteSpace=wrap;html=1;aspect=fixed;strokeColor=#CCCCCC;" vertex="1" parent="1">
          <mxGeometry x="990" y="280" width="20" height="20" as="geometry" />
        </mxCell>
        <mxCell id="z8rxX6k1cLV4djfFU_Xt-98" value="" style="ellipse;whiteSpace=wrap;html=1;aspect=fixed;strokeColor=#CCCCCC;" vertex="1" parent="1">
          <mxGeometry x="920" y="280" width="20" height="20" as="geometry" />
        </mxCell>
        <mxCell id="z8rxX6k1cLV4djfFU_Xt-99" value="+1" style="ellipse;whiteSpace=wrap;html=1;aspect=fixed;strokeColor=#000000;" vertex="1" parent="1">
          <mxGeometry x="860" y="280" width="20" height="20" as="geometry" />
        </mxCell>
        <mxCell id="z8rxX6k1cLV4djfFU_Xt-100" style="edgeStyle=orthogonalEdgeStyle;rounded=0;orthogonalLoop=1;jettySize=auto;html=1;endSize=4;" edge="1" source="z8rxX6k1cLV4djfFU_Xt-101" target="z8rxX6k1cLV4djfFU_Xt-117" parent="1">
          <mxGeometry relative="1" as="geometry" />
        </mxCell>
        <mxCell id="z8rxX6k1cLV4djfFU_Xt-101" value="+1" style="ellipse;whiteSpace=wrap;html=1;aspect=fixed;strokeColor=#000000;" vertex="1" parent="1">
          <mxGeometry x="880" y="320" width="20" height="20" as="geometry" />
        </mxCell>
        <mxCell id="z8rxX6k1cLV4djfFU_Xt-102" value="" style="ellipse;whiteSpace=wrap;html=1;aspect=fixed;strokeColor=#CCCCCC;" vertex="1" parent="1">
          <mxGeometry x="920" y="320" width="20" height="20" as="geometry" />
        </mxCell>
        <mxCell id="z8rxX6k1cLV4djfFU_Xt-103" value="" style="ellipse;whiteSpace=wrap;html=1;aspect=fixed;strokeColor=#CCCCCC;" vertex="1" parent="1">
          <mxGeometry x="960" y="320" width="20" height="20" as="geometry" />
        </mxCell>
        <mxCell id="z8rxX6k1cLV4djfFU_Xt-104" value="" style="ellipse;whiteSpace=wrap;html=1;aspect=fixed;strokeColor=#CCCCCC;" vertex="1" parent="1">
          <mxGeometry x="990" y="320" width="20" height="20" as="geometry" />
        </mxCell>
        <mxCell id="z8rxX6k1cLV4djfFU_Xt-105" value="" style="ellipse;whiteSpace=wrap;html=1;aspect=fixed;strokeColor=#CCCCCC;" vertex="1" parent="1">
          <mxGeometry x="1020" y="320" width="20" height="20" as="geometry" />
        </mxCell>
        <mxCell id="z8rxX6k1cLV4djfFU_Xt-106" value="" style="ellipse;whiteSpace=wrap;html=1;aspect=fixed;strokeColor=#CCCCCC;" vertex="1" parent="1">
          <mxGeometry x="970" y="360" width="20" height="20" as="geometry" />
        </mxCell>
        <mxCell id="z8rxX6k1cLV4djfFU_Xt-107" value="" style="ellipse;whiteSpace=wrap;html=1;aspect=fixed;strokeColor=#CCCCCC;" vertex="1" parent="1">
          <mxGeometry x="1010" y="360" width="20" height="20" as="geometry" />
        </mxCell>
        <mxCell id="z8rxX6k1cLV4djfFU_Xt-108" style="rounded=0;orthogonalLoop=1;jettySize=auto;html=1;strokeColor=#CCCCCC;endSize=4;" edge="1" source="z8rxX6k1cLV4djfFU_Xt-99" target="z8rxX6k1cLV4djfFU_Xt-96" parent="1">
          <mxGeometry relative="1" as="geometry">
            <mxPoint x="933" y="247" as="sourcePoint" />
            <mxPoint x="887" y="293" as="targetPoint" />
          </mxGeometry>
        </mxCell>
        <mxCell id="z8rxX6k1cLV4djfFU_Xt-109" style="rounded=0;orthogonalLoop=1;jettySize=auto;html=1;strokeColor=#000000;endSize=4;" edge="1" source="z8rxX6k1cLV4djfFU_Xt-99" target="z8rxX6k1cLV4djfFU_Xt-101" parent="1">
          <mxGeometry relative="1" as="geometry">
            <mxPoint x="876" y="309" as="sourcePoint" />
            <mxPoint x="864" y="331" as="targetPoint" />
          </mxGeometry>
        </mxCell>
        <mxCell id="z8rxX6k1cLV4djfFU_Xt-110" style="rounded=0;orthogonalLoop=1;jettySize=auto;html=1;strokeColor=#CCCCCC;endSize=4;" edge="1" source="z8rxX6k1cLV4djfFU_Xt-98" target="z8rxX6k1cLV4djfFU_Xt-102" parent="1">
          <mxGeometry relative="1" as="geometry">
            <mxPoint x="884" y="309" as="sourcePoint" />
            <mxPoint x="896" y="331" as="targetPoint" />
          </mxGeometry>
        </mxCell>
        <mxCell id="z8rxX6k1cLV4djfFU_Xt-111" style="rounded=0;orthogonalLoop=1;jettySize=auto;html=1;strokeColor=#CCCCCC;endSize=4;" edge="1" source="z8rxX6k1cLV4djfFU_Xt-97" target="z8rxX6k1cLV4djfFU_Xt-103" parent="1">
          <mxGeometry relative="1" as="geometry">
            <mxPoint x="940" y="310" as="sourcePoint" />
            <mxPoint x="940" y="330" as="targetPoint" />
          </mxGeometry>
        </mxCell>
        <mxCell id="z8rxX6k1cLV4djfFU_Xt-112" style="rounded=0;orthogonalLoop=1;jettySize=auto;html=1;strokeColor=#CCCCCC;endSize=4;" edge="1" source="z8rxX6k1cLV4djfFU_Xt-97" target="z8rxX6k1cLV4djfFU_Xt-104" parent="1">
          <mxGeometry relative="1" as="geometry">
            <mxPoint x="1004" y="308" as="sourcePoint" />
            <mxPoint x="986" y="332" as="targetPoint" />
          </mxGeometry>
        </mxCell>
        <mxCell id="z8rxX6k1cLV4djfFU_Xt-113" style="rounded=0;orthogonalLoop=1;jettySize=auto;html=1;strokeColor=#CCCCCC;endSize=4;" edge="1" source="z8rxX6k1cLV4djfFU_Xt-97" target="z8rxX6k1cLV4djfFU_Xt-105" parent="1">
          <mxGeometry relative="1" as="geometry">
            <mxPoint x="1010" y="310" as="sourcePoint" />
            <mxPoint x="1010" y="330" as="targetPoint" />
          </mxGeometry>
        </mxCell>
        <mxCell id="z8rxX6k1cLV4djfFU_Xt-114" style="rounded=0;orthogonalLoop=1;jettySize=auto;html=1;strokeColor=#CCCCCC;endSize=4;" edge="1" source="z8rxX6k1cLV4djfFU_Xt-104" target="z8rxX6k1cLV4djfFU_Xt-106" parent="1">
          <mxGeometry relative="1" as="geometry">
            <mxPoint x="1016" y="308" as="sourcePoint" />
            <mxPoint x="1034" y="332" as="targetPoint" />
          </mxGeometry>
        </mxCell>
        <mxCell id="z8rxX6k1cLV4djfFU_Xt-115" style="rounded=0;orthogonalLoop=1;jettySize=auto;html=1;strokeColor=#CCCCCC;endSize=4;" edge="1" source="z8rxX6k1cLV4djfFU_Xt-104" target="z8rxX6k1cLV4djfFU_Xt-107" parent="1">
          <mxGeometry relative="1" as="geometry">
            <mxPoint x="1006" y="349" as="sourcePoint" />
            <mxPoint x="994" y="371" as="targetPoint" />
          </mxGeometry>
        </mxCell>
        <mxCell id="z8rxX6k1cLV4djfFU_Xt-116" value="&lt;b&gt;Backpropagation&lt;/b&gt;" style="text;html=1;align=center;verticalAlign=middle;resizable=0;points=[];autosize=1;strokeColor=none;fillColor=none;" vertex="1" parent="1">
          <mxGeometry x="870" y="180" width="120" height="30" as="geometry" />
        </mxCell>
        <mxCell id="z8rxX6k1cLV4djfFU_Xt-117" value="+1" style="ellipse;whiteSpace=wrap;html=1;aspect=fixed;strokeColor=#000000;" vertex="1" parent="1">
          <mxGeometry x="880" y="360" width="20" height="20" as="geometry" />
        </mxCell>
      </root>
    </mxGraphModel>
  </diagram>
</mxfile>
